<svg fill="none" viewBox="0 0 16 16" xmlns="http://www.w3.org/2000/svg"><circle cx="8" cy="8" r="8" fill="white"/><g transform="translate(1.622 2.292) scale(0.8161)"><path d="M14.5 9.5c.13-.001.249.074.305.192.056.118.038.257-.046.357l-.63.754-.63.781-.894 1.093-.362.446c-.134.16-.38.16-.514 0l-.362-.446-1.073-1.245-.536-.643-.63-.74c-.084-.1-.102-.24-.046-.358.056-.117.175-.192.305-.192h.568c.188 0 .34-.151.34-.339V6.384c.001-.142-.088-.269-.222-.317-.133-.048-.283-.007-.373.103l-.563.67-1.927 2.307c-.136.16-.383.16-.519 0L5 6.84l-.447-.535c-.09-.114-.243-.158-.379-.108-.137.05-.225.182-.22.327v4.908c0 .187-.152.339-.34.339H1.104c-.186-.002-.335-.154-.335-.339V1.038c.007-.18.155-.323.335-.326h2.982c.101-.001.197.045.26.125l2.257 2.7.322.384c.136.16.383.16.519 0l.317-.384 2.263-2.714c.064-.075.16-.116.259-.112h3.093c.187 0 .338.153.335.34v8.099c0 .187.152.339.34.339z" fill="#1e1e1e"/></g></svg>
